<?xml version="1.0" encoding="UTF-8"?>
<svg id="Layer_1" xmlns="http://www.w3.org/2000/svg" version="1.1" viewBox="0 0 300 250">
  <!-- Generator: Adobe Illustrator 29.3.1, SVG Export Plug-In . SVG Version: 2.1.0 Build 151)  -->
  <defs>
    <style>
      .st0 {
        font-family: Poppins-ExtraBold, Poppins;
        font-size: 56px;
        font-weight: 700;
      }

      .st0, .st1 {
        fill: #fff;
      }

      .st2 {
        fill: #b98f3e;
      }

      .st3 {
        fill: #1e1e1e;
      }

      .st4 {
        fill: #fefefe;
      }

      .st5 {
        fill: #1d1e1e;
      }

      .st6 {
        display: none;
      }

      .st7 {
        fill: #1e1f1e;
      }
    </style>
  </defs>
  <path class="st1" d="M149.35,22.39l.98.33,4.57,8.16,3.26,5.55,4.89,8.48,4.57,7.83,4.89,8.48,9.14,15.66,9.79,16.97,2.28,3.92-.65.65-14.03,2.28-10.77,2.28h-.65l-3.26-5.55-9.79-16.97-4.89-8.16-2.61,4.24-4.89,8.48-4.57,7.83-4.89,8.48-4.57,7.83-2.94,4.89-1.31.98-14.03,4.89-10.77,4.24-8.48,3.59-2.61.98.65-1.63,4.24-7.5,4.57-7.83,4.89-8.48,4.57-7.83,9.79-16.97,4.57-7.83,9.79-16.97,4.57-7.83,4.89-8.48,4.57-7.83,4.24-7.18Z"/>
  <path class="st2" d="M193.07,80.79l1.96.65,29.36,13.05,13.05,5.87,13.38,5.87,13.05,5.87,11.75,5.22,5.22,2.28v.33l-3.92-.33-13.05-1.31-9.79-.65-7.5-.33h-27.41l-13.7.65-15.99,1.31-18.27,2.28-14.68,2.28-21.21,4.24-18.27,4.57-16.97,4.89-14.03,4.57-15.01,5.55-9.14,3.59-10.77,4.57-9.46,4.24-7.5,3.59-7.18,3.59-.65-.33,4.89-3.26,5.87-3.59,8.16-4.89,8.16-4.57,7.18-3.92,18.27-9.14,9.46-4.24,9.14-3.92,11.75-4.57,9.79-3.59,13.38-4.57,12.07-3.59,19.58-4.89,15.66-3.26,14.03-2.28,13.38-1.63v-.65l-3.92-5.55-9.14-12.4-.98-1.63Z"/>
  <path class="st1" d="M206.77,122.23l1.31.33,4.57,7.83,19.58,33.93,1.31,2.61h-28.71l-2.61-4.24-4.89-8.48-4.57-7.83-9.79-16.97-2.28-3.92v-.65l7.83-.98,18.27-1.63Z"/>
  <path class="st1" d="M108.89,139.52h1.31l-.65,1.63-3.59,6.53-2.94,4.89-4.89,8.48-3.26,5.55-.33.33h-28.71l2.28-4.57,4.57-7.83,1.96-3.59,12.4-4.57,15.01-4.89,6.85-1.96Z"/>
  <g class="st6">
    <path class="st5" d="M211.66,189.76h10.44l2.28,3.26,11.09,16.97h.33v-20.23h10.44v37.19l-.33.33h-9.79l-2.28-2.94-9.46-14.36-1.96-2.94-.33,19.9-.33.33h-10.11v-37.52Z"/>
    <path class="st5" d="M25.7,189.76h12.07l1.31,2.94,4.57,12.72,5.22,14.36,2.28,6.2v1.31h-10.44l-.98-1.63-1.31-3.92v-.65l-13.38.33-1.96,5.55-.65.33h-10.11l.33-2.28,5.87-15.99,6.53-17.94.65-1.31Z"/>
    <path class="st7" d="M54.73,189.76h10.44v15.66l.33,8.16,1.31,2.61,1.63.98,3.26.33,2.61-.98,1.31-1.31.65-2.28.33-23.16h10.44v23.49l-.98,4.57-1.63,3.26-2.61,2.94-3.92,2.28-3.26.98-2.28.33h-3.26l-3.92-.65-4.57-2.28-2.61-2.28-1.96-3.26-.98-2.94-.33-1.96v-24.47Z"/>
    <path class="st5" d="M268.43,189.11h2.94l3.92.65,3.92,1.63,2.94,1.96,2.28,2.28,2.28,3.92.98,3.59h-11.42l-1.96-2.61-1.63-.98-1.31-.33h-3.92l-2.61,1.31-1.63,1.96-.98,2.28-.33,1.63v3.59l.98,3.59,1.96,2.61,2.94,1.31h3.26l3.26-1.31,1.96-2.61h11.42l-.98,3.59-1.96,3.26-2.94,3.26-3.92,2.28-4.57,1.31h-7.18l-4.57-1.31-3.92-2.28-2.61-2.61-2.28-3.59-1.31-3.92-.33-1.63v-7.18l.98-3.92,1.96-3.92,2.94-3.26,2.61-1.96,3.59-1.63,5.22-.98Z"/>
    <path class="st7" d="M150.98,189.11h6.85l4.24,1.31,3.26,1.96,1.96,2.28,1.31,2.94.33,2.94-1.96.33h-6.85l-2.61-.33-.98-2.28-1.31-.65h-1.96l-1.31.33-.33,2.61.33,1.31,1.31.65,4.89,1.96,5.55,2.28,2.61,1.96,2.28,2.61.65,1.96v5.22l-1.31,3.26-2.61,2.94-4.57,2.28-3.59.65h-3.59l-3.92-.65-3.92-1.63-3.26-2.94-1.63-2.61-.65-2.28v-1.96h11.09l.98,2.94.98.33h3.26l1.31-.98v-2.61l-1.63-1.31-9.79-3.92-2.94-1.96-2.28-2.61-.98-3.26v-3.26l.98-3.26,1.96-2.94,2.94-1.96,3.26-1.31,1.63-.33Z"/>
    <path class="st5" d="M171.86,189.76h11.75l2.28,4.57,2.94,6.53.98,2.94h.65l.98-2.94,4.89-10.77.33-.33h11.75l-2.61,5.55-3.26,6.2-5.55,10.77-1.31,2.61-.33,12.07-.33.33h-10.11l-.33-11.75-3.26-6.85-3.26-6.2-6.2-12.07v-.65Z"/>
    <path class="st3" d="M90.62,189.76h30.34v8.16h-10.11v29.36h-10.11l-.33-13.7v-15.33l-9.79-.33v-8.16Z"/>
    <path class="st5" d="M124.88,189.76h10.44v37.19l-.33.33h-9.79l-.33-.33v-37.19Z"/>
    <path class="st4" d="M31.57,201.18l.65.65,3.59,11.09h-8.16l3.59-11.42.33-.33Z"/>
  </g>
  <text class="st0" transform="translate(3.76 212.5)"><tspan x="0" y="0">AUTISYNC</tspan></text>
</svg>