<?xml version="1.0" encoding="UTF-8"?>
<svg id="Layer_1" xmlns="http://www.w3.org/2000/svg" version="1.1" viewBox="0 0 300 250">
  <!-- Generator: Adobe Illustrator 29.3.1, SVG Export Plug-In . SVG Version: 2.1.0 Build 151)  -->
  <defs>
    <style>
      .st0 {
        fill: #b98f3e;
      }

      .st1 {
        fill: #1d1e1e;
      }
    </style>
  </defs>
  <path class="st1" d="M145.11,41.55l1.13.38,5.26,9.4,3.76,6.39,5.64,9.77,5.26,9.02,5.64,9.77,10.52,18.04,11.28,19.55,2.63,4.51-.75.75-16.16,2.63-12.4,2.63h-.75l-3.76-6.39-11.28-19.55-5.64-9.4-3.01,4.89-5.64,9.77-5.26,9.02-5.64,9.77-5.26,9.02-3.38,5.64-1.5,1.13-16.16,5.64-12.4,4.89-9.77,4.13-3.01,1.13.75-1.88,4.89-8.65,5.26-9.02,5.64-9.77,5.26-9.02,11.28-19.55,5.26-9.02,11.28-19.55,5.26-9.02,5.64-9.77,5.26-9.02,4.89-8.27Z"/>
  <path class="st0" d="M195.48,108.84l2.26.75,33.83,15.04,15.04,6.77,15.41,6.77,15.04,6.77,13.53,6.01,6.01,2.63v.38l-4.51-.38-15.04-1.5-11.28-.75-8.65-.38h-31.57l-15.79.75-18.42,1.5-21.05,2.63-16.91,2.63-24.43,4.89-21.05,5.26-19.55,5.64-16.16,5.26-17.29,6.39-10.52,4.13-12.4,5.26-10.9,4.89-8.65,4.13-8.27,4.13-.75-.38,5.64-3.76,6.77-4.13,9.4-5.64,9.4-5.26,8.27-4.51,21.05-10.52,10.9-4.89,10.52-4.51,13.53-5.26,11.28-4.13,15.41-5.26,13.91-4.13,22.55-5.64,18.04-3.76,16.16-2.63,15.41-1.88v-.75l-4.51-6.39-10.52-14.28-1.13-1.88Z"/>
  <path class="st1" d="M211.27,156.57l1.5.38,5.26,9.02,22.55,39.09,1.5,3.01h-33.08l-3.01-4.89-5.64-9.77-5.26-9.02-11.28-19.55-2.63-4.51v-.75l9.02-1.13,21.05-1.88Z"/>
  <path class="st1" d="M98.5,176.5h1.5l-.75,1.88-4.13,7.52-3.38,5.64-5.64,9.77-3.76,6.39-.38.38h-33.08l2.63-5.26,5.26-9.02,2.26-4.13,14.28-5.26,17.29-5.64,7.89-2.26Z"/>
</svg>