<?xml version="1.0" encoding="UTF-8"?>
<svg id="Layer_1" xmlns="http://www.w3.org/2000/svg" version="1.1" viewBox="0 0 300 250">
  <!-- Generator: Adobe Illustrator 29.3.1, SVG Export Plug-In . SVG Version: 2.1.0 Build 151)  -->
  <defs>
    <style>
      .st0 {
        font-family: Montserrat-SemiBold, Montserrat;
        font-size: 10.84px;
        font-weight: 600;
      }

      .st1 {
        fill: #fff;
      }

      .st2 {
        fill: #222526;
      }

      .st3 {
        font-family: Montserrat-Black, Montserrat;
        font-size: 18.58px;
        font-weight: 800;
      }
    </style>
  </defs>
  <text class="st2" transform="translate(126.17 126.04)"><tspan class="st3"><tspan x="0" y="0">MAVUNZUKA</tspan></tspan><tspan class="st0"><tspan x="31.48" y="10.84">&amp; Filhos LDA</tspan></tspan></text>
  <path class="st2" d="M117.99,142.83v-35.67c0-2.74-1.46-5.28-3.84-6.65l-30.89-17.83c-2.37-1.37-5.3-1.37-7.67,0l-30.89,17.83c-2.37,1.37-3.84,3.9-3.84,6.65v35.67c0,2.74,1.46,5.28,3.84,6.65l30.89,17.83c2.37,1.37,5.3,1.37,7.67,0l30.89-17.83c2.37-1.37,3.84-3.9,3.84-6.65Z"/>
  <path class="st1" d="M97.27,111.4c-.03.53-.32,1.02-.59,1.51-1.18,1.99-3.41,5.69-4.59,7.67-3.8,6.45-7.79,13.42-11.6,19.97-.69,1.21-.84,1.35-2.68,1.36-.59,0-1.17,0-1.8,0-1.83,0-4.04,0-5.8,0-1.1,0-1.81,0-2.03-.25-.25-.38.13-.85.31-1.24.94-1.67,3.1-5.33,4.09-7.08.84-1.27.62-2.21-.16-3.43-1.14-1.96-3.29-5.71-4.13-7.1-.25-.33-.53-1.01-.95-.59-2.09,3.3-8.73,15.09-11.03,18.88-.82,1.19-1.82.7-3.44.81-2.3,0-5.75,0-7.41,0-1.29-.01-1.59-.05-1.44-.4,2.74-4.83,21.39-36.89,23.36-40.29.32-.53.48.07.91.72,2.04,3.52,5.96,10.26,8.23,14.18,1.37,2.33,2.37,4.15,2.77,4.71.27.42.53.04.73-.29,1.89-2.93,8.89-15.92,11.41-19.31.16-.03.33.14.58.51.36.54.93,1.55,1.63,2.76l2.29,3.95c.82,1.43,1.37,2.24,1.37,2.91v.06ZM101.33,118.58c-2.26,3.38-5.35,9.16-7.66,12.97-1.57,2.71-4.56,7.81-5.48,9.43-.13.25-.28.49-.2.71.16.2.56.17.88.19,2.33.01,9.54,0,12,0,3.66,0,9.67,0,12.94,0,.45-.03,1.42.12.99-.56-1.46-2.51-9.93-17.12-13.17-22.62-.08-.11-.16-.18-.28-.13h-.02Z"/>
</svg>